<svg width="87" height="48" viewBox="0 0 87 48" fill="none" xmlns="http://www.w3.org/2000/svg">
<path d="M73.1807 39.4784C73.1807 38.3054 74.1315 37.3546 75.3045 37.3546H84.4229C85.5959 37.3546 86.5467 38.3054 86.5467 39.4784V39.4784C86.5467 40.6513 85.5959 41.6022 84.4229 41.6022H75.3045C74.1315 41.6022 73.1807 40.6513 73.1807 39.4784V39.4784Z" fill="#612ACE"/>
<path d="M73.1807 39.4784C73.1807 38.3054 74.1315 37.3546 75.3045 37.3546H84.4229C85.5959 37.3546 86.5467 38.3054 86.5467 39.4784V39.4784C86.5467 40.6513 85.5959 41.6022 84.4229 41.6022H75.3045C74.1315 41.6022 73.1807 40.6513 73.1807 39.4784V39.4784Z" fill="url(#paint0_radial_2_1148)" fill-opacity="0.9"/>
<path d="M73.1807 39.4784C73.1807 38.3054 74.1315 37.3546 75.3045 37.3546H84.4229C85.5959 37.3546 86.5467 38.3054 86.5467 39.4784V39.4784C86.5467 40.6513 85.5959 41.6022 84.4229 41.6022H75.3045C74.1315 41.6022 73.1807 40.6513 73.1807 39.4784V39.4784Z" fill="url(#paint1_radial_2_1148)" fill-opacity="0.56"/>
<path d="M0.27846 22.3483C0.124671 22.3483 0 22.2215 0 22.0651V1.26537C0 1.13701 0.084898 1.02471 0.206876 0.991709L3.83714 0.00967084C4.01388 -0.0381398 4.18719 0.0973454 4.18719 0.283327V9.0361C5.21072 7.78185 6.56923 7.15471 8.26271 7.15471C9.82593 7.15471 11.1565 7.69633 12.2545 8.77955C13.3339 9.86276 13.8735 11.212 13.8735 12.8274V22.0651C13.8735 22.2215 13.7489 22.3483 13.5951 22.3483H9.99273C9.83894 22.3483 9.71427 22.2215 9.71427 22.0651V13.9676C9.71427 13.1504 9.44443 12.4758 8.90475 11.9437C8.38368 11.3926 7.73234 11.117 6.95073 11.117C6.16912 11.117 5.50848 11.3926 4.96879 11.9437C4.44772 12.4758 4.18719 13.1504 4.18719 13.9676V22.0651C4.18719 22.2215 4.06252 22.3483 3.90873 22.3483H0.27846Z" fill="#262626"/>
<path d="M17.574 20.4954C16.1038 18.9941 15.3687 17.1412 15.3687 14.9368C15.3687 12.7323 16.1038 10.889 17.574 9.40667C19.0441 7.90537 20.8958 7.15471 23.129 7.15471C25.3435 7.15471 27.1859 7.90537 28.656 9.40667C30.1448 10.889 30.8892 12.7323 30.8892 14.9368C30.8892 17.1222 30.1448 18.9751 28.656 20.4954C27.1673 21.9777 25.3249 22.7188 23.129 22.7188C20.8958 22.7188 19.0441 21.9777 17.574 20.4954ZM23.129 18.5C24.0967 18.5 24.8969 18.1579 25.5296 17.4738C26.1996 16.7706 26.5345 15.925 26.5345 14.9368C26.5345 13.9486 26.1996 13.1124 25.5296 12.4283C24.8969 11.7251 24.0967 11.3736 23.129 11.3736C22.1612 11.3736 21.3517 11.7156 20.7004 12.3998C20.049 13.1029 19.7234 13.9486 19.7234 14.9368C19.7234 15.925 20.049 16.7706 20.7004 17.4738C21.3517 18.1579 22.1612 18.5 23.129 18.5Z" fill="#262626"/>
<path d="M36.5539 22.0651C36.5539 22.2215 36.4292 22.3483 36.2754 22.3483H32.6452C32.4914 22.3483 32.3667 22.2215 32.3667 22.0651V7.80847C32.3667 7.65208 32.4914 7.5253 32.6452 7.5253H36.2754C36.4292 7.5253 36.5539 7.65208 36.5539 7.80847V8.86506C37.5216 7.72483 38.7777 7.15471 40.3223 7.15471C42.2205 7.15471 43.6907 7.91487 44.7329 9.43518C45.6819 7.91487 47.1335 7.15471 49.0875 7.15471C50.6507 7.15471 51.9813 7.68683 53.0793 8.75104C54.1587 9.79625 54.6984 11.098 54.6984 12.6563V22.0651C54.6984 22.2215 54.5737 22.3483 54.4199 22.3483H50.7896C50.6358 22.3483 50.5112 22.2215 50.5112 22.0651V13.7965C50.5112 13.0364 50.2785 12.3998 49.8133 11.8867C49.3481 11.3736 48.7712 11.117 48.0826 11.117C47.394 11.117 46.8078 11.3736 46.324 11.8867C45.8587 12.3998 45.6261 13.0364 45.6261 13.7965V22.0651C45.6261 22.2215 45.5014 22.3483 45.3477 22.3483H41.7174C41.5636 22.3483 41.4389 22.2215 41.4389 22.0651V13.7965C41.4389 13.0364 41.2063 12.3998 40.7411 11.8867C40.2758 11.3736 39.6989 11.117 39.0104 11.117C38.3218 11.117 37.7356 11.3736 37.2517 11.8867C36.7865 12.3998 36.5539 13.0364 36.5539 13.7965V22.0651Z" fill="#262626"/>
<path d="M71.3995 16.4761H60.5966C60.8385 17.2552 61.2758 17.8824 61.9086 18.3575C62.5413 18.8326 63.2857 19.0701 64.1417 19.0701C65.2697 19.0701 66.189 18.6781 66.8997 17.8941C66.973 17.8132 67.0836 17.7772 67.188 17.8058L70.6911 18.768C70.8647 18.8157 70.9491 19.0161 70.8553 19.1722C70.2036 20.2554 69.3411 21.0033 68.2173 21.6641C67.0076 22.3673 65.6398 22.7188 64.1138 22.7188C61.8435 22.7188 59.9546 21.9777 58.4472 20.4954C56.9398 19.0131 56.1861 17.1602 56.1861 14.9368C56.1861 12.7323 56.9212 10.889 58.3913 9.40667C59.8615 7.90537 61.6946 7.15471 63.8905 7.15471C66.0679 7.15471 67.8916 7.90537 69.3618 9.40667C70.8319 10.889 71.567 12.7323 71.567 14.9368C71.567 15.4689 71.5112 15.982 71.3995 16.4761ZM60.6245 13.3119H67.2961C67.0356 12.5518 66.5982 11.9437 65.9841 11.4876C65.37 11.0315 64.6721 10.8035 63.8905 10.8035C63.1461 10.8035 62.4762 11.0315 61.8807 11.4876C61.2852 11.9437 60.8664 12.5518 60.6245 13.3119Z" fill="#262626"/>
<path d="M9.7461 23.9848C9.7461 23.8284 9.87077 23.7016 10.0246 23.7016H13.6447C13.7985 23.7016 13.9231 23.8284 13.9231 23.9848V26.5668H16.9306C17.0844 26.5668 17.2091 26.6936 17.2091 26.85V29.9715C17.2091 30.1279 17.0844 30.2546 16.9306 30.2546H13.9231V35.7865C13.9231 36.2403 14.0717 36.6186 14.3687 36.9212C14.6657 37.2049 15.0463 37.3467 15.5104 37.3467H16.9306C17.0844 37.3467 17.2091 37.4735 17.2091 37.6299V41.0351C17.2091 41.1915 17.0844 41.3183 16.9306 41.3183H14.8142C13.3848 41.3183 12.1781 40.8738 11.1941 39.985C10.2288 39.0772 9.7461 37.9519 9.7461 36.6091V23.9848Z" fill="#262626"/>
<path d="M20.3188 39.4743C18.8522 37.9803 18.1189 36.1363 18.1189 33.9425C18.1189 31.7487 18.8522 29.9142 20.3188 28.4391C21.7854 26.945 23.6326 26.198 25.8603 26.198C28.0695 26.198 29.9074 26.945 31.374 28.4391C32.8592 29.9142 33.6018 31.7487 33.6018 33.9425C33.6018 36.1174 32.8592 37.9613 31.374 39.4743C29.8889 40.9495 28.051 41.687 25.8603 41.687C23.6326 41.687 21.7854 40.9495 20.3188 39.4743ZM25.8603 37.4885C26.8257 37.4885 27.624 37.1481 28.2552 36.4673C28.9235 35.7675 29.2577 34.9259 29.2577 33.9425C29.2577 32.9591 28.9235 32.127 28.2552 31.4461C27.624 30.7464 26.8257 30.3965 25.8603 30.3965C24.895 30.3965 24.0874 30.7369 23.4376 31.4177C22.7879 32.1175 22.463 32.9591 22.463 33.9425C22.463 34.9259 22.7879 35.7675 23.4376 36.4673C24.0874 37.1481 24.895 37.4885 25.8603 37.4885Z" fill="#262626"/>
<path d="M39.6248 33.9515C39.6248 31.7323 40.2763 29.8986 41.5794 28.4505C42.8825 26.9836 44.5206 26.2501 46.4938 26.2501C47.983 26.2501 49.3233 26.7015 50.5147 27.6042V26.9C50.5147 26.7437 50.6394 26.6169 50.7932 26.6169H54.3968C54.5505 26.6169 54.6752 26.7437 54.6752 26.9V40.9757C54.6752 42.988 53.9678 44.6524 52.5531 45.9689C51.1569 47.323 49.4164 48 47.3315 48C45.6561 48 44.1576 47.5674 42.8359 46.7023C41.594 45.8833 40.7437 44.8867 40.2849 43.7124C40.2257 43.5609 40.314 43.3941 40.4688 43.3517L44.0619 42.3664C44.1895 42.3314 44.3226 42.3932 44.3918 42.5076C44.6294 42.9007 45.0001 43.3022 45.4607 43.5428C46.0005 43.8437 46.5962 43.9942 47.2477 43.9942C48.1599 43.9942 48.9324 43.7121 49.5653 43.1479C50.1983 42.5837 50.5147 41.8784 50.5147 41.0321V40.2705C49.3606 41.192 48.0203 41.6528 46.4938 41.6528C44.5206 41.6528 42.8825 40.9193 41.5794 39.4524C40.2763 37.9667 39.6248 36.133 39.6248 33.9515ZM47.2198 30.4252C46.3077 30.4252 45.5351 30.7637 44.9022 31.4408C44.2879 32.1178 43.9808 32.9641 43.9808 33.9797C43.9808 34.9576 44.2879 35.7851 44.9022 36.4621C45.5351 37.1392 46.3077 37.4777 47.2198 37.4777C48.1134 37.4777 48.8766 37.1392 49.5095 36.4621C50.1424 35.8039 50.4589 34.9764 50.4589 33.9797C50.4589 32.9641 50.1424 32.1178 49.5095 31.4408C48.8766 30.7637 48.1134 30.4252 47.2198 30.4252Z" fill="#262626"/>
<path d="M58.387 39.4524C56.9164 37.9667 56.1811 36.133 56.1811 33.9515C56.1811 31.7699 56.9164 29.9456 58.387 28.4787C59.8576 26.993 61.7098 26.2501 63.9436 26.2501C66.1588 26.2501 68.0017 26.993 69.4724 28.4787C70.9616 29.9456 71.7062 31.7699 71.7062 33.9515C71.7062 36.1142 70.9616 37.9479 69.4724 39.4524C67.9831 40.9193 66.1402 41.6528 63.9436 41.6528C61.7098 41.6528 59.8576 40.9193 58.387 39.4524ZM63.9436 37.4777C64.9116 37.4777 65.7121 37.1392 66.345 36.4621C67.0151 35.7663 67.3502 34.9294 67.3502 33.9515C67.3502 32.9735 67.0151 32.146 66.345 31.469C65.7121 30.7731 64.9116 30.4252 63.9436 30.4252C62.9756 30.4252 62.1659 30.7637 61.5143 31.4408C60.8628 32.1366 60.537 32.9735 60.537 33.9515C60.537 34.9294 60.8628 35.7663 61.5143 36.4621C62.1659 37.1392 62.9756 37.4777 63.9436 37.4777Z" fill="#262626"/>
<defs>
<radialGradient id="paint0_radial_2_1148" cx="0" cy="0" r="1" gradientUnits="userSpaceOnUse" gradientTransform="translate(81.9322 42.5499) rotate(-91.3516) scale(5.18244 10.4426)">
<stop stop-color="#FFD458"/>
<stop offset="0.985981" stop-color="#FFD458" stop-opacity="0"/>
</radialGradient>
<radialGradient id="paint1_radial_2_1148" cx="0" cy="0" r="1" gradientUnits="userSpaceOnUse" gradientTransform="translate(83.9717 42.6816) rotate(-93.1859) scale(3.49493 8.36106)">
<stop stop-color="#FFB4AE"/>
<stop offset="1" stop-color="#FFB4AE" stop-opacity="0"/>
</radialGradient>
</defs>
</svg>
